<?xml version="1.0" standalone="no"?>
<!DOCTYPE svg PUBLIC "-//W3C//DTD SVG 20010904//EN"
 "http://www.w3.org/TR/2001/REC-SVG-20010904/DTD/svg10.dtd">
<svg version="1.0" xmlns="http://www.w3.org/2000/svg"
 width="1182.000000pt" height="1046.000000pt" viewBox="0 0 1182.000000 1046.000000"
 preserveAspectRatio="xMidYMid meet">
<metadata>
Created by potrace 1.16, written by Peter Selinger 2001-2019
</metadata>
<g transform="translate(0.000000,1046.000000) scale(0.100000,-0.100000)"
fill="#000000" stroke="none">
<path d="M3413 8973 c-195 -3 -201 -4 -196 -23 5 -19 14 -20 172 -20 91 0 203
-3 249 -7 l84 -6 -4 29 c-4 34 20 32 -305 27z"/>
<path d="M3640 8725 l0 -24 170 -3 c94 -2 170 1 170 5 0 5 -5 17 -10 28 -10
18 -23 19 -170 19 l-160 0 0 -25z"/>
<path d="M6575 8509 c-22 -5 -49 -13 -60 -18 -11 -5 -48 -22 -83 -37 -35 -15
-84 -42 -110 -61 l-47 -33 -3 25 c-5 37 -17 31 -61 -27 -82 -111 -115 -212
-100 -309 11 -69 38 -97 98 -101 l46 -3 6 -85 c5 -77 23 -155 50 -227 9 -25
10 -25 24 -7 9 11 14 43 15 77 0 63 19 110 49 127 68 36 131 -32 131 -141 0
-35 4 -39 73 -82 39 -25 97 -71 127 -102 30 -31 67 -63 82 -71 64 -33 172 -7
233 56 29 30 29 33 37 178 4 81 14 197 22 257 15 123 8 200 -23 266 -20 41
-18 45 23 29 14 -5 26 -6 26 -1 0 23 -68 97 -121 131 -58 37 -194 90 -233 90
-19 0 -19 20 -1 63 6 15 -1 17 -76 16 -46 -1 -102 -5 -124 -10z"/>
<path d="M3869 8463 l-196 -3 5 -25 4 -25 194 0 194 0 0 30 c0 17 -1 29 -2 28
-2 -2 -91 -4 -199 -5z"/>
<path d="M4532 8405 l2 -26 316 7 c173 4 316 7 317 8 1 1 -1 6 -5 12 -5 7
-115 13 -319 18 l-313 7 2 -26z"/>
<path d="M3684 8374 c3 -9 6 -20 6 -25 0 -5 67 -9 154 -9 l154 0 0 25 0 25
-160 0 c-142 0 -159 -2 -154 -16z"/>
<path d="M3710 8165 l0 -25 234 0 234 0 -2 25 -1 25 -232 0 -233 0 0 -25z"/>
<path d="M3876 8112 c-3 -5 -4 -17 -2 -28 3 -18 13 -19 144 -22 l141 -3 -1 31
-1 30 -138 0 c-76 0 -140 -4 -143 -8z"/>
<path d="M3730 8015 l0 -25 270 0 270 0 -2 25 -2 25 -268 0 -268 0 0 -25z"/>
<path d="M3740 7945 l0 -25 245 0 244 0 -8 23 c-8 22 -10 22 -245 25 l-236 2
0 -25z"/>
<path d="M3760 7790 c0 -19 7 -20 204 -20 195 0 204 1 209 20 5 20 0 20 -204
20 -202 0 -209 -1 -209 -20z"/>
<path d="M3627 7683 c-130 -3 -148 -6 -143 -19 3 -9 6 -18 6 -20 0 -2 102 -4
226 -4 l225 0 -3 23 c-3 21 -8 22 -83 22 -44 1 -147 -1 -228 -2z"/>
<path d="M3790 7590 c0 -19 7 -20 248 -20 137 0 251 3 255 6 3 3 3 12 0 20 -4
11 -50 14 -254 14 -242 0 -249 -1 -249 -20z"/>
<path d="M3968 7453 l-158 -4 0 -24 0 -25 160 0 159 0 -2 30 c-1 16 -2 29 -2
28 0 -1 -71 -4 -157 -5z"/>
<path d="M7185 7418 c-56 -19 -220 -99 -298 -145 -100 -58 -184 -137 -193
-181 -6 -28 -16 -38 -67 -63 -90 -46 -159 -120 -212 -231 -71 -148 -431 -708
-455 -708 -3 0 -41 170 -84 378 -50 239 -86 392 -100 417 -12 23 -37 49 -59
61 -38 21 -40 21 -1106 29 -975 6 -1071 6 -1099 -9 -33 -17 -62 -61 -62 -93 0
-10 64 -322 141 -693 134 -638 143 -677 172 -714 17 -21 44 -47 60 -56 l29
-18 -31 -7 c-35 -7 -66 -46 -57 -70 3 -9 18 -15 41 -15 l35 0 0 -155 0 -154
-87 -3 -88 -3 1 -27 c1 -16 2 -41 3 -56 l1 -29 96 19 c53 10 100 16 105 12 5
-3 9 -774 9 -1915 l0 -1909 40 0 c37 0 40 2 40 28 0 15 4 90 10 167 12 189 20
447 25 847 4 357 61 2542 71 2746 l6 122 1264 0 1264 0 0 -70 0 -70 126 0 126
0 -6 -27 c-20 -98 -37 -222 -47 -341 -6 -75 -13 -156 -15 -179 l-5 -43 -598 0
-598 0 -44 -23 c-29 -15 -54 -40 -74 -71 -42 -69 -43 -133 -7 -332 26 -141 34
-169 65 -217 19 -30 51 -66 69 -81 79 -59 10 -56 1178 -56 l1070 0 0 -1200 0
-1200 43 0 44 0 6 127 c3 71 9 139 12 153 2 14 7 203 10 420 4 322 28 1363 38
1630 l2 65 221 5 221 5 41 29 c27 19 50 46 66 80 24 51 25 53 29 446 6 454 16
562 79 853 l21 97 444 0 443 0 0 -55 c0 -64 -4 -62 113 -40 43 8 81 15 83 15
2 0 4 -862 4 -1915 l0 -1915 44 0 43 0 7 107 c10 159 17 395 22 778 3 187 22
943 42 1680 l37 1340 123 3 122 3 0 154 0 155 -720 0 c-569 0 -720 3 -720 13
0 11 13 61 117 437 54 195 61 280 26 345 -26 50 -58 79 -102 94 -23 7 -155 11
-407 11 -205 0 -375 4 -378 8 -3 5 -12 64 -21 133 -46 363 -87 549 -138 639
-91 161 -301 275 -477 258 l-47 -5 -6 65 c-9 87 -32 126 -77 129 -19 1 -48 -3
-65 -9z m-1486 -491 c52 -26 60 -52 147 -468 72 -344 83 -407 73 -427 -7 -12
-55 -68 -107 -122 -77 -82 -107 -106 -165 -134 -83 -40 -184 -68 -345 -95 -63
-11 -116 -21 -118 -24 -3 -2 -13 -53 -23 -112 -21 -121 -24 -126 -106 -151
-43 -12 -76 -13 -237 -2 l-188 12 15 23 c8 12 15 25 15 28 0 3 -169 5 -375 5
-407 0 -426 2 -461 54 -17 27 -294 1322 -294 1377 0 16 7 32 18 38 27 16 2120
14 2151 -2z m810 -1229 c-9 -3 -37 -10 -63 -13 l-46 -7 0 -138 0 -137 -97 -6
c-54 -4 -149 -7 -210 -7 -103 0 -113 2 -113 19 0 11 21 32 54 54 64 43 313
278 376 356 25 31 54 66 65 79 l20 22 15 -107 c14 -99 14 -109 -1 -115z"/>
<path d="M3702 6798 c3 -23 4 -23 206 -26 121 -1 202 1 202 7 0 40 -5 41 -212
41 l-199 0 3 -22z"/>
<path d="M2210 6360 c0 -8 14 -101 32 -206 l32 -191 -62 -328 c-35 -180 -61
-330 -58 -332 3 -3 217 -2 476 2 425 7 470 9 470 24 0 19 -33 216 -54 321 -8
41 -17 95 -20 120 -4 25 -11 65 -16 90 -5 25 -11 59 -14 75 -4 26 -38 224 -51
294 -2 13 -7 45 -10 70 -4 25 -9 53 -11 61 -3 13 -52 15 -359 15 -309 0 -355
-2 -355 -15z m688 -517 c40 -230 72 -421 72 -425 0 -5 -99 -8 -219 -8 -201 0
-220 2 -225 18 -3 9 -34 188 -71 397 -36 209 -68 392 -71 408 l-6 27 224 0
224 0 72 -417z"/>
<path d="M1747 4983 c-2 -5 -2 -14 -1 -20 1 -7 2 -30 3 -51 l1 -39 93 18 c50
10 98 18 105 18 9 1 12 -388 12 -1914 l0 -1915 39 0 38 0 12 123 c6 67 13 241
16 387 3 146 8 315 10 375 2 61 6 227 10 370 3 143 8 307 10 365 2 58 7 222
10 365 3 143 8 305 10 360 2 55 7 226 10 380 3 154 8 318 10 365 2 47 7 213
10 370 4 157 8 322 10 368 l4 82 -204 0 c-112 0 -206 -3 -208 -7z"/>
<path d="M6564 3453 c3 -10 19 -66 37 -126 l32 -107 400 2 399 3 38 123 37
122 -474 0 c-447 0 -474 -1 -469 -17z"/>
<path d="M6519 1876 c-9 -9 -468 -36 -499 -29 -38 7 -38 1 0 -107 17 -46 30
-86 30 -88 0 -2 21 -2 48 1 26 3 126 13 222 22 96 9 199 19 228 22 52 4 53 5
48 31 -8 36 -18 102 -21 127 -1 19 -43 34 -56 21z"/>
<path d="M5275 1840 c-38 -5 -154 -9 -257 -11 -104 -1 -188 -6 -188 -10 0 -8
11 -38 31 -84 5 -11 14 -38 22 -60 14 -46 -7 -44 222 -26 83 6 180 12 217 13
37 0 72 4 77 8 8 4 8 26 0 70 -17 105 -18 110 -37 109 -9 -1 -48 -5 -87 -9z"/>
<path d="M4965 1324 c-153 -81 -195 -98 -315 -126 -69 -17 -135 -34 -147 -39
-33 -12 -30 -54 6 -90 l29 -29 435 0 c378 0 436 2 447 15 11 13 7 40 -18 151
-17 75 -33 139 -37 142 -4 4 -79 9 -168 10 l-162 4 -70 -38z"/>
<path d="M6215 1346 c-16 -8 -50 -35 -75 -61 -50 -52 -113 -88 -186 -106 -27
-7 -57 -16 -66 -21 -28 -14 -22 -56 13 -90 l31 -31 204 6 c197 6 204 5 204
-13 0 -11 9 -24 19 -30 13 -6 244 -10 680 -10 586 0 661 2 675 16 9 8 16 19
16 24 0 5 -60 52 -132 106 -232 169 -296 188 -603 181 -210 -5 -242 -10 -337
-57 l-56 -28 -14 56 c-11 46 -18 58 -38 63 -48 13 -303 9 -335 -5z"/>
</g>
</svg>
